<svg width="762" height="724" viewBox="0 0 762 724" fill="none" xmlns="http://www.w3.org/2000/svg">

<style>

#squares {
    animation: squares 2s infinite linear;
    transform-origin: center;
    transform-box: fill-box;
}

#mobile {
    animation: mobile 2s ease-in-out infinite alternate;
    transform-origin: bottom;
}

#box1 {
    animation: box 2s ease-in-out infinite alternate;
}

#box2 {
    animation: box 2s ease-in-out infinite alternate-reverse;
}

@keyframes squares {
    from {
        transform: rotateZ(0deg);
    }
    to {
        transform: rotateZ(360deg);
    }
}

@keyframes mobile {
    from {
        transform: rotatex(0deg);
    }
    to {
        transform: rotatex(15deg);
    }
}

@keyframes box {
    from {
        transform: translateX(0px);
    }
    to {
        transform: translateX(-20px);
    }
}

</style>

<g id="Group 3">
    <path id="Vector" d="M485.83 292.362H301.148V287H217.406V292.362H31.9635C30.323 292.362 28.6986 292.818 27.183 293.702C25.6673 294.586 24.2902 295.883 23.1301 297.517C21.9701 299.151 21.0499 301.091 20.4222 303.226C19.7944 305.361 19.4712 307.65 19.4712 309.961V666.213C19.4712 668.524 19.7944 670.813 20.4222 672.948C21.0499 675.083 21.9701 677.023 23.1301 678.657C24.2902 680.291 25.6673 681.588 27.1829 682.472C28.6986 683.356 30.323 683.812 31.9635 683.812H485.83C489.143 683.812 492.32 681.957 494.663 678.657C497.006 675.357 498.322 670.88 498.322 666.213V309.961C498.322 307.65 497.999 305.361 497.371 303.226C496.743 301.091 495.823 299.151 494.663 297.517C493.503 295.883 492.126 294.586 490.61 293.702C489.094 292.818 487.47 292.362 485.83 292.362V292.362Z" fill="#3F3D56"/>
    <path id="Vector_2" d="M481.573 323.464H36.2196V677.377H481.573V323.464Z" fill="#FF7663"/>
    <path id="Vector_3" d="M258.516 313.812C261.039 313.812 263.084 310.931 263.084 307.377C263.084 303.823 261.039 300.942 258.516 300.942C255.993 300.942 253.948 303.823 253.948 307.377C253.948 310.931 255.993 313.812 258.516 313.812Z" fill="white"/>
    <path id="Vector_4" opacity="0.1" d="M354.21 677.377H36.2197V323.464L354.21 677.377Z" fill="#0F0D0D"/>
    <g id="mobile">
        <path id="Vector_5" d="M761.408 286.691H758.164V200.744C758.164 194.211 756.833 187.743 754.248 181.708C751.663 175.673 747.875 170.189 743.098 165.57C738.322 160.951 732.651 157.286 726.411 154.787C720.17 152.287 713.481 151 706.727 151H518.437C511.682 151 504.994 152.287 498.753 154.786C492.512 157.286 486.842 160.95 482.066 165.57C477.289 170.189 473.5 175.672 470.915 181.708C468.33 187.743 467 194.211 467 200.744V672.256C467 685.449 472.419 698.102 482.066 707.43C491.712 716.759 504.795 722 518.437 722H706.726C720.368 722 733.452 716.759 743.098 707.43C752.744 698.102 758.164 685.449 758.164 672.256V347.87H761.408L761.408 286.691Z" fill="#3F3D56"/>
        <path id="Vector_6" d="M747.422 200.699V671.516C747.422 681.369 743.368 690.818 736.153 697.785C728.937 704.752 719.151 708.666 708.947 708.666H519.452C514.4 708.666 509.398 707.705 504.73 705.838C500.063 703.971 495.822 701.234 492.25 697.784C488.678 694.335 485.845 690.239 483.912 685.732C481.98 681.225 480.985 676.395 480.986 671.516V200.699C480.985 195.821 481.98 190.991 483.912 186.483C485.845 181.976 488.678 177.881 492.25 174.431C495.822 170.982 500.063 168.245 504.73 166.378C509.398 164.511 514.4 163.55 519.452 163.549H542.448C541.314 166.229 540.88 169.138 541.185 172.017C541.491 174.897 542.525 177.66 544.198 180.063C545.87 182.466 548.129 184.434 550.776 185.794C553.422 187.155 556.375 187.865 559.373 187.864H667.41C670.408 187.865 673.36 187.154 676.006 185.793C678.652 184.433 680.91 182.464 682.582 180.062C684.254 177.659 685.288 174.896 685.592 172.016C685.896 169.136 685.462 166.229 684.327 163.549H708.947C719.151 163.55 728.937 167.464 736.153 174.431C743.368 181.397 747.422 190.847 747.422 200.699V200.699Z" fill="#A6E4FF"/>
        <path id="Vector_7" d="M481.21 585.725L479.588 673.989C479.588 694.873 498.399 711.804 519.612 711.804H708.788C730.001 711.804 748.82 694.873 748.82 673.989L747.198 586.5C651.825 550.746 563.635 552.989 481.21 585.725Z" fill="#51BBE9"/>
        <path id="Vector_8" d="M599.518 180.021C596.236 180.021 593.574 177.036 593.574 173.354C593.574 169.672 596.236 166.687 599.518 166.687C602.801 166.687 605.463 169.672 605.463 173.354C605.463 177.036 602.801 180.021 599.518 180.021Z" fill="#F2F2F2"/>
        <path id="Vector_9" d="M632.386 180.021C629.103 180.021 626.442 177.036 626.442 173.354C626.442 169.672 629.103 166.687 632.386 166.687C635.669 166.687 638.33 169.672 638.33 173.354C638.33 177.036 635.669 180.021 632.386 180.021Z" fill="#F2F2F2"/>
        <path id="Vector_10" d="M616.302 180.021C613.019 180.021 610.358 177.036 610.358 173.354C610.358 169.672 613.019 166.687 616.302 166.687C619.585 166.687 622.246 169.672 622.246 173.354C622.246 177.036 619.585 180.021 616.302 180.021Z" fill="#F2F2F2"/>
        <path id="Vector_11" opacity="0.3" d="M729.381 212.179H499.026C497.174 212.179 495.672 214.04 495.672 216.336V230.767C495.672 233.063 497.174 234.924 499.026 234.924H729.381C731.234 234.924 732.736 233.063 732.736 230.767V216.336C732.736 214.04 731.234 212.179 729.381 212.179Z" fill="#6C63FF"/>
        <path id="Vector_12" d="M716.34 224.052H715.957L715.813 223.906C716.292 223.207 716.556 222.325 716.56 221.413C716.552 220.665 716.364 219.936 716.018 219.318C715.672 218.701 715.185 218.222 714.617 217.943C714.049 217.664 713.426 217.596 712.827 217.749C712.227 217.901 711.679 218.267 711.249 218.801C710.82 219.334 710.529 220.011 710.414 220.746C710.299 221.481 710.364 222.241 710.602 222.931C710.839 223.62 711.239 224.208 711.75 224.621C712.26 225.034 712.859 225.252 713.472 225.249C714.215 225.246 714.934 224.926 715.505 224.344L715.643 224.49V224.935L718.035 227.865L718.75 226.991L716.34 224.052ZM713.472 224.052C713.044 224.054 712.626 223.9 712.27 223.611C711.914 223.322 711.637 222.91 711.472 222.428C711.308 221.946 711.264 221.415 711.347 220.903C711.429 220.39 711.635 219.919 711.936 219.549C712.238 219.18 712.623 218.927 713.042 218.825C713.461 218.723 713.895 218.774 714.29 218.974C714.685 219.173 715.023 219.512 715.26 219.946C715.498 220.38 715.624 220.891 715.624 221.413C715.626 221.76 715.572 222.103 715.464 222.424C715.357 222.744 715.198 223.036 714.998 223.281C714.798 223.526 714.56 223.721 714.298 223.853C714.036 223.986 713.755 224.053 713.472 224.052V224.052Z" fill="#444053"/>
        <path id="Vector_13" opacity="0.7" d="M564.754 338.457H550.366C548.739 338.457 547.42 340.08 547.42 342.083V343.46C547.42 345.462 548.739 347.085 550.366 347.085H564.754C566.381 347.085 567.7 345.462 567.7 343.46V342.083C567.7 340.08 566.381 338.457 564.754 338.457Z" fill="#3F3D56"/>
        <path id="Vector_14" opacity="0.3" d="M575.316 357.282H550.294C548.707 357.282 547.42 359.2 547.42 361.566V363.194C547.42 365.56 548.707 367.478 550.294 367.478H575.316C576.903 367.478 578.19 365.56 578.19 363.194V361.566C578.19 359.2 576.903 357.282 575.316 357.282Z" fill="#6C63FF"/>
        <path id="Vector_15" opacity="0.3" d="M606.086 346.301H550.293C548.707 346.301 547.42 348.071 547.42 350.256V351.758C547.42 353.942 548.707 355.713 550.293 355.713H606.086C607.673 355.713 608.959 353.942 608.959 351.758V350.256C608.959 348.071 607.673 346.301 606.086 346.301Z" fill="#6C63FF"/>
        <path id="Vector_16" d="M530.273 349.722L526.275 349.507L526.039 346.545C526.026 346.394 525.987 346.249 525.924 346.116C525.861 345.983 525.775 345.865 525.672 345.77C525.568 345.675 525.45 345.605 525.322 345.562C525.195 345.52 525.061 345.507 524.929 345.524L510.599 346.867C510.467 346.874 510.338 346.911 510.219 346.975C510.1 347.04 509.994 347.131 509.907 347.243C509.819 347.355 509.752 347.486 509.71 347.628C509.668 347.77 509.651 347.92 509.66 348.07L510.682 361.068C510.713 361.368 510.847 361.642 511.055 361.829C511.263 362.017 511.528 362.103 511.792 362.069L512.518 362.009L512.406 364.535C512.401 364.701 512.425 364.866 512.477 365.021C512.529 365.177 512.608 365.319 512.708 365.439C512.809 365.56 512.929 365.657 513.063 365.724C513.196 365.791 513.34 365.828 513.486 365.831L529.482 366.691C529.774 366.713 530.063 366.603 530.284 366.384C530.505 366.165 530.641 365.855 530.663 365.522L531.336 351.012C531.34 350.848 531.317 350.684 531.266 350.531C531.215 350.377 531.138 350.236 531.039 350.116C530.94 349.997 530.822 349.9 530.69 349.832C530.559 349.765 530.417 349.727 530.273 349.722V349.722ZM513.079 350.018L512.737 357.447L511.886 358.791L511.107 348.976V348.916C511.122 348.784 511.175 348.661 511.259 348.567C511.342 348.473 511.451 348.414 511.567 348.399L524.215 347.223C524.332 347.21 524.449 347.247 524.544 347.326C524.639 347.406 524.704 347.522 524.728 347.653C524.728 347.653 524.728 347.653 524.728 347.653L524.852 349.346L514.224 348.768C514.077 348.765 513.931 348.794 513.793 348.855C513.656 348.916 513.531 349.007 513.424 349.123C513.318 349.239 513.233 349.378 513.173 349.531C513.114 349.685 513.082 349.85 513.079 350.018V350.018ZM529.257 363.077L525.124 357.588L523.311 359.483L519.964 355.029L514.018 362.23L514.526 351.26C514.554 351.11 514.629 350.976 514.738 350.885C514.847 350.793 514.981 350.75 515.116 350.763L529.228 351.543C529.358 351.546 529.482 351.605 529.575 351.709C529.668 351.812 529.724 351.952 529.73 352.1C529.73 352.1 529.73 352.1 529.73 352.1L529.257 363.077Z" fill="#FFA41C"/>
        <path id="Vector_17" d="M526.784 356.497C527.13 356.499 527.469 356.385 527.757 356.17C528.046 355.956 528.271 355.65 528.404 355.292C528.537 354.934 528.573 354.539 528.506 354.158C528.439 353.778 528.274 353.428 528.029 353.153C527.785 352.878 527.474 352.69 527.134 352.614C526.795 352.538 526.443 352.576 526.123 352.724C525.803 352.872 525.53 353.124 525.338 353.446C525.145 353.769 525.042 354.148 525.042 354.536C525.044 355.055 525.228 355.551 525.554 355.918C525.88 356.285 526.322 356.493 526.784 356.497Z" fill="#FFA41C"/>
        <path id="Vector_18" opacity="0.7" d="M679.542 338.457H665.65C664.079 338.457 662.806 340.08 662.806 342.083V343.46C662.806 345.462 664.079 347.085 665.65 347.085H679.542C681.113 347.085 682.386 345.462 682.386 343.46V342.083C682.386 340.08 681.113 338.457 679.542 338.457Z" fill="#3F3D56"/>
        <path id="Vector_19" opacity="0.3" d="M691.336 361.203H665.745C664.121 361.203 662.806 362.826 662.806 364.828V366.206C662.806 368.208 664.121 369.831 665.745 369.831H691.336C692.959 369.831 694.275 368.208 694.275 366.206V364.828C694.275 362.826 692.959 361.203 691.336 361.203Z" fill="#6C63FF"/>
        <path id="Vector_20" opacity="0.3" d="M721.471 349.438H665.679C664.092 349.438 662.806 351.209 662.806 353.393V354.896C662.806 357.08 664.092 358.85 665.679 358.85H721.471C723.058 358.85 724.345 357.08 724.345 354.896V353.393C724.345 351.209 723.058 349.438 721.471 349.438Z" fill="#6C63FF"/>
        <path id="Vector_21" d="M633.714 363.322C632.884 363.896 631.945 364.199 630.99 364.199C630.035 364.199 629.096 363.896 628.266 363.322C626.134 364.119 624.829 366.734 624.344 369.047H637.631C637.151 366.734 635.851 364.119 633.714 363.322ZM630.993 351.007C630.046 351.007 629.12 351.349 628.333 351.989C627.545 352.63 626.932 353.54 626.57 354.605C626.207 355.669 626.113 356.841 626.298 357.971C626.483 359.102 626.94 360.14 627.61 360.954C628.28 361.769 629.133 362.323 630.062 362.547C630.991 362.771 631.954 362.655 632.829 362.213C633.703 361.771 634.45 361.023 634.976 360.064C635.501 359.105 635.781 357.978 635.78 356.826C635.778 355.282 635.273 353.802 634.376 352.711C633.478 351.62 632.261 351.007 630.993 351.007V351.007ZM630.993 361.264C630.274 361.247 629.575 360.975 628.981 360.482C628.387 359.989 627.924 359.296 627.649 358.488H634.337C634.061 359.296 633.598 359.989 633.005 360.482C632.411 360.975 631.712 361.247 630.993 361.264V361.264Z" fill="#FFA41C"/>
        <path id="Vector_22" d="M640.962 360.502C640.184 360.993 639.321 361.289 638.432 361.371C637.542 361.453 636.647 361.318 635.809 360.976C635.431 361.707 634.955 362.369 634.398 362.938C635.641 363.573 636.687 364.608 637.404 365.909H645.323C645.078 364.662 644.547 363.508 643.783 362.56C643.018 361.612 642.046 360.902 640.962 360.502V360.502ZM637.931 347.89C637.036 347.89 636.156 348.141 635.37 348.62C634.584 349.1 633.919 349.793 633.435 350.635C634.24 351.157 634.938 351.863 635.482 352.707C636.026 353.552 636.405 354.515 636.594 355.534H641.655C641.346 356.358 640.829 357.064 640.168 357.566C639.507 358.068 638.73 358.344 637.931 358.361C637.496 358.36 637.064 358.271 636.655 358.101C636.584 358.584 636.473 359.06 636.324 359.521C636.843 359.708 637.386 359.8 637.931 359.795C639.345 359.795 640.701 359.167 641.701 358.049C642.7 356.931 643.262 355.414 643.262 353.832C643.262 352.251 642.7 350.734 641.701 349.616C640.701 348.498 639.345 347.87 637.931 347.87V347.89Z" fill="#FFA41C"/>
        <path id="Vector_23" opacity="0.7" d="M678.843 281.985H664.951C663.38 281.985 662.107 283.46 662.107 285.28V286.533C662.107 288.353 663.38 289.828 664.951 289.828H678.843C680.414 289.828 681.687 288.353 681.687 286.533V285.28C681.687 283.46 680.414 281.985 678.843 281.985Z" fill="#3F3D56"/>
        <path id="Vector_24" opacity="0.3" d="M690.002 302.378H664.98C663.393 302.378 662.107 303.853 662.107 305.673V306.926C662.107 308.746 663.393 310.221 664.98 310.221H690.002C691.589 310.221 692.876 308.746 692.876 306.926V305.673C692.876 303.853 691.589 302.378 690.002 302.378Z" fill="#6C63FF"/>
        <path id="Vector_25" opacity="0.3" d="M721.439 292.181H665.012C663.408 292.181 662.107 293.657 662.107 295.477V296.729C662.107 298.549 663.408 300.025 665.012 300.025H721.439C723.044 300.025 724.345 298.549 724.345 296.729V295.477C724.345 293.657 723.044 292.181 721.439 292.181Z" fill="#6C63FF"/>
        <path id="Vector_26" d="M642.875 292.966C644.613 292.966 646.022 291.385 646.022 289.436C646.022 287.487 644.613 285.907 642.875 285.907C641.137 285.907 639.729 287.487 639.729 289.436C639.729 291.385 641.137 292.966 642.875 292.966Z" fill="#FFA41C"/>
        <path id="Vector_27" d="M640.776 293.537L634.831 298.246L626.592 291.719V289.337L634.831 295.871L639.566 292.119C639.12 291.316 638.877 290.377 638.867 289.415C638.856 288.452 639.08 287.507 639.509 286.691H626.347C625.816 286.693 625.307 286.944 624.932 287.39C624.557 287.837 624.345 288.441 624.344 289.072V303.918C624.345 304.549 624.557 305.154 624.932 305.6C625.307 306.046 625.816 306.298 626.347 306.299H643.326C643.856 306.298 644.364 306.046 644.739 305.6C645.113 305.153 645.323 304.548 645.323 303.918V293.605C644.64 294.121 643.845 294.392 643.036 294.385C642.226 294.378 641.435 294.093 640.759 293.564L640.776 293.537Z" fill="#FFA41C"/>
        <path id="Vector_28" opacity="0.7" d="M564.156 281.985H550.265C548.694 281.985 547.42 283.46 547.42 285.28V286.533C547.42 288.353 548.694 289.828 550.265 289.828H564.156C565.727 289.828 567.001 288.353 567.001 286.533V285.28C567.001 283.46 565.727 281.985 564.156 281.985Z" fill="#3F3D56"/>
        <path id="Vector_29" opacity="0.3" d="M575.95 303.162H550.359C548.736 303.162 547.42 304.638 547.42 306.458V307.71C547.42 309.53 548.736 311.006 550.359 311.006H575.95C577.573 311.006 578.889 309.53 578.889 307.71V306.458C578.889 304.638 577.573 303.162 575.95 303.162Z" fill="#6C63FF"/>
        <path id="Vector_30" opacity="0.3" d="M606.753 292.966H550.326C548.721 292.966 547.42 294.441 547.42 296.261V297.514C547.42 299.334 548.721 300.809 550.326 300.809H606.753C608.357 300.809 609.658 299.334 609.658 297.514V296.261C609.658 294.441 608.357 292.966 606.753 292.966Z" fill="#6C63FF"/>
        <path id="Vector_31" d="M528.962 304.848L520.29 294.419C520.721 293.077 520.814 291.615 520.56 290.211C520.305 288.808 519.713 287.523 518.857 286.515C517.948 285.438 516.785 284.718 515.524 284.452C514.263 284.186 512.964 284.387 511.801 285.027L515.903 289.955L513.047 293.368L508.865 288.467C508.309 289.858 508.13 291.421 508.352 292.939C508.574 294.457 509.187 295.854 510.105 296.937C510.938 297.964 512.006 298.675 513.175 298.981C514.345 299.287 515.564 299.174 516.68 298.657L525.335 309.093C525.421 309.201 525.524 309.288 525.639 309.347C525.754 309.406 525.878 309.437 526.003 309.437C526.128 309.437 526.252 309.406 526.367 309.347C526.482 309.288 526.586 309.201 526.672 309.093L528.865 306.458C528.972 306.371 529.06 306.256 529.124 306.122C529.189 305.988 529.227 305.838 529.236 305.684C529.245 305.53 529.226 305.376 529.178 305.232C529.131 305.088 529.057 304.959 528.962 304.854V304.848Z" fill="#FFA41C"/>
        <path id="Vector_32" opacity="0.3" d="M622.547 311.718H619.638L620.148 309.757H621.889L622.547 311.718Z" fill="#6C63FF"/>
        <path id="Vector_33" opacity="0.1" d="M616.659 280.595C616.659 280.595 611.575 283.693 610.847 289.882Z" fill="white"/>
        <path id="Vector_34" opacity="0.3" d="M676.729 288.384L673.883 287.709L674.743 285.913L676.449 286.321L676.729 288.384Z" fill="#6C63FF"/>
        <path id="Vector_35" opacity="0.1" d="M676.715 256.571C676.715 256.571 671.169 258.422 669.316 264.304Z" fill="white"/>
    </g>
    <g id="Group 2">
        <path id="Vector_36" d="M145.261 632.343H103.66V644.589H145.261V632.343Z" fill="#3F3D56"/>
        <path id="Vector_37" d="M195.554 537H53.3661V542.248H195.554V537Z" fill="#3F3D56"/>
        <path id="Vector_38" d="M195.554 553.619H53.3661V558.868H195.554V553.619Z" fill="#3F3D56"/>
        <path id="Vector_39" d="M195.554 570.239H53.3661V575.487H195.554V570.239Z" fill="#3F3D56"/>
        <path id="Vector_40" d="M195.554 586.858H53.3661V592.106H195.554V586.858Z" fill="#3F3D56"/>
        <path id="Vector_41" d="M195.554 603.478H53.3661V608.726H195.554V603.478Z" fill="#3F3D56"/>
    </g>
    <g id="squares">
        <path id="Vector_42" d="M171.55 383H154.165V407.492H171.55V383Z" fill="#F2F2F2"/>
        <path id="Vector_43" d="M179.622 418.863H158.511V389.123H179.622V418.863ZM159.429 417.57H178.704V390.416H159.429V417.57Z" fill="#3F3D56"/>
    </g>
    <path id="Vector_44" d="M510.826 670.942H467.363V666.53C467.363 666.416 467.347 666.302 467.315 666.196C467.284 666.09 467.239 665.993 467.181 665.912C467.123 665.831 467.055 665.766 466.979 665.722C466.904 665.678 466.823 665.656 466.742 665.656H451.84C451.758 665.656 451.678 665.678 451.602 665.722C451.527 665.766 451.459 665.831 451.401 665.912C451.343 665.993 451.298 666.09 451.266 666.196C451.235 666.302 451.219 666.416 451.219 666.53V670.942H441.905V666.53C441.905 666.416 441.889 666.302 441.858 666.196C441.827 666.09 441.781 665.993 441.724 665.912C441.666 665.831 441.597 665.766 441.522 665.722C441.447 665.678 441.366 665.656 441.285 665.656H426.383C426.301 665.656 426.22 665.678 426.145 665.722C426.07 665.766 426.001 665.831 425.944 665.912C425.886 665.993 425.84 666.09 425.809 666.196C425.778 666.302 425.762 666.416 425.762 666.53V670.942H416.448V666.53C416.448 666.416 416.432 666.302 416.401 666.196C416.37 666.09 416.324 665.993 416.266 665.912C416.209 665.831 416.14 665.766 416.065 665.722C415.99 665.678 415.909 665.656 415.827 665.656H400.925C400.844 665.656 400.763 665.678 400.688 665.722C400.612 665.766 400.544 665.831 400.486 665.912C400.429 665.993 400.383 666.09 400.352 666.196C400.321 666.302 400.305 666.416 400.305 666.53V670.942H390.991V666.53C390.991 666.416 390.975 666.302 390.944 666.196C390.912 666.09 390.867 665.993 390.809 665.912C390.751 665.831 390.683 665.766 390.608 665.722C390.532 665.678 390.452 665.656 390.37 665.656H375.468C375.387 665.656 375.306 665.678 375.231 665.722C375.155 665.766 375.087 665.831 375.029 665.912C374.971 665.993 374.926 666.09 374.894 666.196C374.863 666.302 374.847 666.416 374.847 666.53V670.942H365.534V666.53C365.534 666.416 365.518 666.302 365.486 666.196C365.455 666.09 365.409 665.993 365.352 665.912C365.294 665.831 365.226 665.766 365.15 665.722C365.075 665.678 364.994 665.656 364.913 665.656H350.011C349.929 665.656 349.849 665.678 349.773 665.722C349.698 665.766 349.63 665.831 349.572 665.912C349.514 665.993 349.468 666.09 349.437 666.196C349.406 666.302 349.39 666.416 349.39 666.53V670.942H340.076V666.53C340.076 666.416 340.06 666.302 340.029 666.196C339.998 666.09 339.952 665.993 339.895 665.912C339.837 665.831 339.768 665.766 339.693 665.722C339.618 665.678 339.537 665.656 339.455 665.656H324.554C324.472 665.656 324.391 665.678 324.316 665.722C324.241 665.766 324.172 665.831 324.115 665.912C324.057 665.993 324.011 666.09 323.98 666.196C323.949 666.302 323.933 666.416 323.933 666.53V670.942H314.619V666.53C314.619 666.416 314.603 666.302 314.572 666.196C314.541 666.09 314.495 665.993 314.437 665.912C314.38 665.831 314.311 665.766 314.236 665.722C314.16 665.678 314.08 665.656 313.998 665.656H197.267C197.186 665.656 197.105 665.678 197.03 665.722C196.954 665.766 196.886 665.831 196.828 665.912C196.771 665.993 196.725 666.09 196.694 666.196C196.662 666.302 196.646 666.416 196.646 666.53V670.942H187.333V666.53C187.333 666.416 187.317 666.302 187.285 666.196C187.254 666.09 187.209 665.993 187.151 665.912C187.093 665.831 187.025 665.766 186.949 665.722C186.874 665.678 186.793 665.656 186.712 665.656H171.81C171.728 665.656 171.648 665.678 171.572 665.722C171.497 665.766 171.429 665.831 171.371 665.912C171.313 665.993 171.268 666.09 171.236 666.196C171.205 666.302 171.189 666.416 171.189 666.53V670.942H161.875V666.53C161.875 666.416 161.859 666.302 161.828 666.196C161.797 666.09 161.751 665.993 161.694 665.912C161.636 665.831 161.567 665.766 161.492 665.722C161.417 665.678 161.336 665.656 161.254 665.656H146.353C146.271 665.656 146.19 665.678 146.115 665.722C146.04 665.766 145.971 665.831 145.914 665.912C145.856 665.993 145.81 666.09 145.779 666.196C145.748 666.302 145.732 666.416 145.732 666.53V670.942H136.418V666.53C136.418 666.416 136.402 666.302 136.371 666.196C136.34 666.09 136.294 665.993 136.236 665.912C136.179 665.831 136.11 665.766 136.035 665.722C135.959 665.678 135.879 665.656 135.797 665.656H120.895C120.814 665.656 120.733 665.678 120.658 665.722C120.582 665.766 120.514 665.831 120.456 665.912C120.399 665.993 120.353 666.09 120.322 666.196C120.291 666.302 120.274 666.416 120.274 666.53V670.942H110.961V666.53C110.961 666.416 110.945 666.302 110.914 666.196C110.882 666.09 110.837 665.993 110.779 665.912C110.721 665.831 110.653 665.766 110.578 665.722C110.502 665.678 110.421 665.656 110.34 665.656H95.4381C95.3566 665.656 95.2758 665.678 95.2005 665.722C95.1252 665.766 95.0567 665.831 94.9991 665.912C94.9414 665.993 94.8957 666.09 94.8645 666.196C94.8333 666.302 94.8172 666.416 94.8172 666.53V670.942H85.5036V666.53C85.5036 666.416 85.4875 666.302 85.4563 666.196C85.4251 666.09 85.3794 665.993 85.3217 665.912C85.264 665.831 85.1956 665.766 85.1203 665.722C85.0449 665.678 84.9642 665.656 84.8827 665.656H69.9808C69.8993 665.656 69.8186 665.678 69.7432 665.722C69.6679 665.766 69.5995 665.831 69.5418 665.912C69.4841 665.993 69.4384 666.09 69.4072 666.196C69.376 666.302 69.3599 666.416 69.3599 666.53V670.942H60.0463V666.53C60.0463 666.416 60.0303 666.302 59.9991 666.196C59.9679 666.09 59.9221 665.993 59.8645 665.912C59.8068 665.831 59.7384 665.766 59.663 665.722C59.5877 665.678 59.5069 665.656 59.4254 665.656H44.5236C44.442 665.656 44.3613 665.678 44.286 665.722C44.2106 665.766 44.1422 665.831 44.0845 665.912C44.0269 665.993 43.9811 666.09 43.9499 666.196C43.9187 666.302 43.9027 666.416 43.9027 666.53V670.942H15.3408C11.3886 670.942 7.5983 673.154 4.80367 677.091C2.00904 681.028 0.439028 686.367 0.439026 691.935V701.427C0.439037 706.995 2.00904 712.335 4.80367 716.272C7.5983 720.209 11.3886 722.42 15.3408 722.42H510.826C514.779 722.42 518.569 720.209 521.364 716.272C524.158 712.335 525.728 706.995 525.728 701.427V691.935C525.728 686.367 524.158 681.028 521.364 677.091C518.569 673.154 514.779 670.942 510.826 670.942V670.942Z" fill="#3F3D56"/>
    <path id="Vector_45" d="M158.844 253.644L141.226 251.989L147.098 289.218L167.065 277.636L158.844 253.644Z" fill="#FFB9B9"/>
    <path id="Vector_46" d="M320.341 184.15L279.233 127.893L255.742 153.54L209.348 232.134L214.633 243.716L271.01 189.941L309.183 260.262L345.593 234.616L320.341 184.15Z" fill="#2F2E41"/>
    <path id="Vector_47" opacity="0.1" d="M320.341 184.15L279.233 127.893L255.742 153.54L209.348 232.134L214.633 243.716L271.01 189.941L309.183 260.262L345.593 234.616L320.341 184.15Z" fill="black"/>
    <path id="Vector_48" d="M323.865 221.379L318.579 227.171L275.709 206.488L265.725 200.697L245.758 206.488C245.758 206.488 245.758 183.323 264.551 184.151L283.931 190.769L306.834 193.251L323.865 221.379Z" fill="#FFB9B9"/>
    <path id="Vector_49" d="M362.037 282.6L349.117 294.182H333.848L262.789 256.953L158.843 283.427L155.907 251.989L251.044 193.251L334.436 232.134L362.037 282.6Z" fill="#2F2E41"/>
    <path id="Vector_50" d="M278.645 135.34L269.836 137.821L267.917 134.667C266.397 132.169 265.434 129.095 265.149 125.83C264.864 122.565 265.268 119.254 266.313 116.312V116.312L290.978 70.8097C290.978 70.8097 298.025 48.4724 309.183 57.5728C320.341 66.6731 299.787 81.5646 299.787 81.5646L287.454 108.866L288.629 122.93L278.645 135.34Z" fill="#FFB9B9"/>
    <path id="Vector_51" d="M334.435 81.5646C347.084 81.5646 357.339 67.1191 357.339 49.2997C357.339 31.4802 347.084 17.0347 334.435 17.0347C321.786 17.0347 311.532 31.4802 311.532 49.2997C311.532 67.1191 321.786 81.5646 334.435 81.5646Z" fill="#FFB9B9"/>
    <path id="Vector_52" d="M324.158 72.8779L334.729 108.452L359.981 93.5606C359.981 93.5606 351.76 65.4322 351.76 64.6049C351.76 63.7776 324.158 72.8779 324.158 72.8779Z" fill="#FFB9B9"/>
    <path id="Vector_53" d="M146.634 266.455C146.634 266.455 151.893 253.896 149.672 252.43C147.45 250.964 138.015 245.119 138.015 245.119L124.178 238.659C124.178 238.659 104.213 196.858 103.775 233.209C103.337 269.559 118.312 278.297 118.312 278.297C118.312 278.297 131.668 318.79 139.234 312.333C146.8 305.876 154.37 283.957 154.37 283.957C154.37 283.957 140.727 273.625 146.634 266.455Z" fill="white"/>
    <path id="Vector_54" opacity="0.1" d="M387.289 170.913L364.973 191.596L331.664 233.904L329.15 227.997L322.103 178.359H323.865L342.07 131.203L387.289 170.913Z" fill="black"/>
    <path id="Vector_55" d="M342.07 126.239L323.865 173.395H317.405L313.294 189.941L303.898 193.251L329.15 232.134L364.973 186.632L387.289 165.949L342.07 126.239Z" fill="#343340"/>
    <path id="Vector_56" d="M316.621 25.3093L314.14 26.6543C313.758 26.2902 313.432 25.8225 313.18 25.2785C312.928 24.7346 312.756 24.1253 312.674 23.4864C312.591 22.8476 312.6 22.1919 312.7 21.5579C312.799 20.9239 312.988 20.3243 313.254 19.7943L308.668 19.492C311.612 13.9688 315.355 9.38915 319.649 6.05611C323.943 2.72307 328.691 0.712602 333.578 0.157701C338.464 -0.3972 343.379 0.516107 347.997 2.83724C352.614 5.15837 356.83 8.83441 360.363 13.6221C360.572 12.6091 362.848 14.5799 363.777 16.5783C364.089 14.93 366.223 22.8983 366.978 28.5308C367.328 26.6554 368.671 29.683 367.494 32.5881C368.24 32.4345 368.577 35.1227 367.999 36.6203C368.815 36.0803 368.678 39.2891 367.793 41.4335C368.958 41.2878 358.611 63.9093 354.422 77.1295C353.205 69.2561 351.838 60.9652 347.916 55.1004C347.249 54.1035 346.519 53.1955 345.79 52.2891L341.848 47.3868C337.264 41.6864 333.093 34.6509 326.987 32.5204C322.79 31.0563 320.136 30.7257 322.423 24.0636C320.357 25.2784 318.427 27.0849 316.342 28.2132C316.37 27.2823 316.662 26.2406 316.621 25.3093Z" fill="#2F2E41"/>
    <g id="box1">
        <path id="Vector_57" d="M403.635 361.647L251.542 361L251.414 411.622L403.507 412.269L403.635 361.647Z" fill="#3F3D56"/>
        <path id="Vector_58" d="M269.516 400C275.2 400 279.808 393.956 279.808 386.5C279.808 379.044 275.2 373 269.516 373C263.831 373 259.223 379.044 259.223 386.5C259.223 393.956 263.831 400 269.516 400Z" fill="#6C63FF"/>
        <path id="Vector_59" d="M336.12 374.979L292.038 374.792L292.028 378.843L336.11 379.03L336.12 374.979Z" fill="white"/>
        <path id="Vector_60" d="M389.161 384.926L292.014 384.515L292.003 388.566L389.151 388.977L389.161 384.926Z" fill="white"/>
        <path id="Vector_61" d="M389.136 394.649L291.989 394.238L291.979 398.289L389.126 398.7L389.136 394.649Z" fill="white"/>
        <path id="Vector_62" d="M403.635 496.5L251.542 495.853L251.414 546.475L403.507 547.122L403.635 496.5Z" fill="#3F3D56"/>
        <path id="Vector_63" d="M269.516 535C275.2 535 279.808 528.732 279.808 521C279.808 513.268 275.2 507 269.516 507C263.831 507 259.223 513.268 259.223 521C259.223 528.732 263.831 535 269.516 535Z" fill="#6C63FF"/>
        <path id="Vector_64" d="M336.12 509.831L292.038 509.645L292.028 513.696L336.11 513.883L336.12 509.831Z" fill="white"/>
        <path id="Vector_65" d="M389.161 519.779L292.014 519.368L292.003 523.419L389.151 523.83L389.161 519.779Z" fill="white"/>
        <path id="Vector_66" d="M389.136 529.501L291.989 529.091L291.979 533.142L389.126 533.553L389.136 529.501Z" fill="white"/>
    </g>
    <g id="box2">
        <path id="Vector_67" d="M288.141 479.741L440.234 479.098L440.106 428.477L288.013 429.12L288.141 479.741Z" fill="#3F3D56"/>
        <path id="Vector_68" d="M422.133 468C427.818 468 432.426 461.732 432.426 454C432.426 446.268 427.818 440 422.133 440C416.449 440 411.841 446.268 411.841 454C411.841 461.732 416.449 468 422.133 468Z" fill="#6C63FF"/>
        <path id="Vector_69" d="M355.539 446.506L399.621 446.32L399.611 442.269L355.529 442.455L355.539 446.506Z" fill="white"/>
        <path id="Vector_70" d="M302.498 456.454L399.646 456.043L399.635 451.992L302.488 452.402L302.498 456.454Z" fill="white"/>
        <path id="Vector_71" d="M302.523 466.176L399.67 465.766L399.66 461.715L302.512 462.125L302.523 466.176Z" fill="white"/>
    </g>
    <path id="Vector_72" d="M598.163 422.943C592.855 425.378 588.046 431.075 586.959 438.543C586.455 442.005 586.764 445.604 586.34 449.085C585.356 457.16 580.691 463.326 576.389 469.054C572.086 474.781 567.643 481.436 567.329 489.609C566.985 498.559 571.762 506.943 570.936 515.834C569.975 526.164 561.945 532.857 559.96 542.913C558.635 549.629 560.259 556.862 562.931 562.791C568.024 574.089 576.728 581.76 585.997 585.871C595.267 589.983 605.139 590.848 614.89 590.987C626.762 591.156 639.652 589.771 648.572 579.125C653.668 572.99 656.867 564.464 657.53 555.258C658.378 542.926 654.59 530.184 657.203 518.318C658.847 510.85 662.971 504.03 662.356 496.281C661.754 488.703 656.883 483.332 653.541 477.211C650.421 471.496 648.528 464.746 646.673 458.092L640.324 435.324C639.076 430.848 637.706 426.141 634.925 423.203C629.718 417.703 621.346 418.784 615.257 419.918C609.609 420.97 603.595 420.45 598.163 422.943Z" fill="#2F2E41"/>
    <path id="Vector_73" d="M600.115 489.082C600.115 489.082 602.927 501.484 581.834 515.794C560.741 530.104 583.943 545.368 583.943 545.368L608.552 553C608.552 553 633.864 548.23 636.676 542.506C639.489 536.782 644.41 517.702 643.004 514.84C641.952 512.802 640.776 510.887 639.489 509.116C639.489 509.116 622.614 505.3 623.317 494.806C624.02 484.312 600.115 489.082 600.115 489.082Z" fill="#FFB9B9"/>
    <path id="Vector_74" opacity="0.1" d="M600.115 489.082C600.115 489.082 602.927 501.484 581.834 515.794C560.741 530.104 583.943 545.368 583.943 545.368L608.552 553C608.552 553 633.864 548.23 636.676 542.506C639.489 536.782 644.41 517.702 643.004 514.84C641.952 512.802 640.776 510.887 639.489 509.116C639.489 509.116 622.614 505.3 623.317 494.806C624.02 484.312 600.115 489.082 600.115 489.082Z" fill="black"/>
    <path id="Vector_75" d="M613.793 509C626.142 509 636.153 495.345 636.153 478.5C636.153 461.655 626.142 448 613.793 448C601.444 448 591.433 461.655 591.433 478.5C591.433 495.345 601.444 509 613.793 509Z" fill="#FFB9B9"/>
    <path id="Vector_76" d="M548.132 626.731C548.132 626.731 554.47 640.417 570.668 643.349C586.866 646.282 589.683 638.462 588.275 636.506C586.866 634.551 569.964 625.753 569.964 625.753L560.104 615L548.132 626.731Z" fill="#FFB9B9"/>
    <path id="Vector_77" d="M663.269 615L645.094 629.602C645.094 629.602 621.328 627.655 630.415 637.39C639.502 647.125 656.279 643.231 656.279 643.231L672.356 632.523L663.269 615Z" fill="#FFB9B9"/>
    <path id="Vector_78" d="M571.742 640C571.742 640 554.825 696.119 575.266 704.68C595.707 713.24 652.096 711.338 664.784 699.924C677.471 688.51 680.995 673.291 678.881 668.535C676.766 663.779 662.669 650.463 652.801 649.512C642.933 648.561 571.742 640 571.742 640Z" fill="#2F2E41"/>
    <path id="Vector_79" opacity="0.05" d="M571.742 640C571.742 640 554.825 696.119 575.266 704.68C595.707 713.24 652.096 711.338 664.784 699.924C677.471 688.51 680.995 673.291 678.881 668.535C676.766 663.779 662.669 650.463 652.801 649.512C642.933 648.561 571.742 640 571.742 640Z" fill="black"/>
    <path id="Vector_80" d="M651.284 643.375C651.284 643.375 710.673 614.135 709.971 649.416C709.27 684.697 672.115 694.232 672.115 694.232L660.898 696.139L599.206 699C599.206 699 601.309 683.743 596.402 681.836C596.402 681.836 612.526 676.115 613.227 675.161C613.928 674.208 653.888 655.137 656.692 654.183C659.496 653.23 667.909 645.602 674.218 646.555C674.218 646.555 681.229 638.927 688.94 640.834L667.208 642.741L651.284 643.375Z" fill="#2F2E41"/>
    <path id="Vector_81" opacity="0.1" d="M651.284 643.375C651.284 643.375 710.673 614.135 709.971 649.416C709.27 684.697 672.115 694.232 672.115 694.232L660.898 696.139L599.206 699C599.206 699 601.309 683.743 596.402 681.836C596.402 681.836 612.526 676.115 613.227 675.161C613.928 674.208 653.888 655.137 656.692 654.183C659.496 653.23 667.909 645.602 674.218 646.555C674.218 646.555 681.229 638.927 688.94 640.834L667.208 642.741L651.284 643.375Z" fill="black"/>
    <path id="Vector_82" d="M641.122 648.257L648.545 672L693.725 649.589L697.2 636.923L685.384 634L661.629 639.846L651.326 643.744L641.122 648.257Z" fill="#2F2E41"/>
    <path id="Vector_83" opacity="0.1" d="M641.122 648.257L648.545 672L693.725 649.589L697.2 636.923L685.384 634L661.629 639.846L651.326 643.744L641.122 648.257Z" fill="black"/>
    <path id="Vector_84" d="M543.735 676.386C543.735 676.386 557.077 699.182 572.526 704.881C587.975 710.58 596.402 702.981 596.402 702.981L591.486 676.386L589.379 659.289L580.251 650.74L561.993 639.343L540.224 629.844C540.224 629.844 531.095 627.945 531.095 629.844C531.095 631.744 539.522 660.239 539.522 660.239L543.735 676.386Z" fill="#2F2E41"/>
    <path id="Vector_85" d="M560.199 689.149C560.199 689.149 563.005 716.592 566.512 718.484C570.02 720.377 580.542 716.592 583.348 714.699C586.154 712.806 595.692 704.074 595.692 704.074C595.692 704.074 562.304 687.256 560.199 689.149Z" fill="#F2F2F2"/>
    <path id="Vector_86" d="M623.85 692L637.573 694.769L636.128 716L616.987 710.058L623.85 692Z" fill="#FFB9B9"/>
    <path id="Vector_87" d="M632.523 697.615C632.523 697.615 626.272 707.577 632.59 713.217L636.802 717.917C636.802 717.917 650.842 721.676 652.246 723.556C653.65 725.436 659.266 720.736 659.266 720.736C659.266 720.736 659.968 692.538 659.266 690.659C658.564 688.779 650.14 686.899 649.438 688.779C648.736 690.659 640.312 693.478 635.398 691.598L632.523 697.615Z" fill="#F2F2F2"/>
    <path id="Vector_88" d="M576.338 646.811C576.338 646.811 527.136 607.895 519.404 622.132C511.672 636.37 503.238 656.303 525.73 671.49C548.223 686.677 618.511 718 618.511 718C618.511 718 629.055 696.169 629.055 690.474C629.055 690.474 591.802 667.693 585.476 665.795C579.15 663.896 553.846 642.065 550.331 640.167C546.817 638.268 541.897 632.573 541.897 632.573L576.338 646.811Z" fill="#2F2E41"/>
    <g id="tshirts">
        <animate attributeType="CSS" attributeName="fill"
                values="#FFF963;#f170ab;#FFF963" dur="4s" repeatCount="indefinite" />
        <path id="Vector_89" d="M393.696 178.12C393.696 197.592 391.518 216.943 387.242 235.46L385.527 242.889L377.306 295.837L368.497 299.146L362.037 287.564L349.117 274.327L339.721 252.817L331.663 233.905L329.15 227.998L320.341 165.95L286.867 139.476L275.709 136.994L278.058 127.894L288.041 108.866L298.025 107.211L300.961 103.902L303.31 105.556L312.706 98.1107L315.643 99.7654L332.814 102.016L343.244 98.938L358.243 87.5957L364.386 89.0104L385.527 113.83C390.932 134.409 393.698 156.177 393.696 178.12V178.12Z" />
        <path id="Vector_90" d="M611.327 542.61C611.327 542.61 584.331 539.916 583.819 514.493C583.819 514.493 574.2 512.972 571.398 516.796C568.596 520.62 559.489 523.489 559.489 533.05C559.489 542.61 574.901 571.293 574.901 571.293C574.901 571.293 583.307 609.537 579.804 616.229C576.302 622.922 575.601 640.132 575.601 640.132C575.601 640.132 610.627 636.307 616.231 640.132C621.835 643.956 644.251 643.956 645.652 640.132C647.053 636.307 644.251 588.503 644.251 588.503C644.251 588.503 650.556 577.03 649.155 563.644L665.967 536.874C665.967 536.874 659.662 511.059 649.855 511.059C649.855 511.059 636.546 506.279 636.195 508.669C635.845 511.059 642.85 537.83 611.327 542.61Z" />
        <path id="Vector_91" d="M562.347 528L559.512 530.865C559.512 530.865 553.131 552.829 552.422 565.243C551.713 577.658 543.206 615.856 543.915 620.631C544.623 625.405 545.332 629.225 549.586 634C549.586 634 555.258 616.811 565.183 619.676L577.236 560.468L562.347 528Z" />
        <path id="Vector_92" d="M660.151 528L665.772 536.612C665.772 536.612 669.286 548.095 669.286 550.966C669.286 553.836 676.312 595.94 677.015 597.853C677.717 599.767 680.528 623.69 677.015 629.431C673.501 635.172 667.178 639 667.178 639C667.178 639 671.393 618.905 658.043 617.948L659.449 610.293L646.801 552.879L660.151 528Z" />
    </g>
    <path id="Vector_93" d="M563.748 594.086V644.357C563.748 647.531 564.667 650.578 566.306 652.839C567.945 655.1 570.172 656.394 572.507 656.441L649.843 657.999C652.165 658.045 654.407 656.856 656.092 654.685C657.777 652.513 658.77 649.532 658.859 646.379L660.281 596.102C660.327 594.492 660.135 592.885 659.717 591.377C659.299 589.869 658.664 588.49 657.848 587.321C657.032 586.151 656.053 585.216 654.967 584.569C653.881 583.922 652.712 583.576 651.526 583.553L572.768 582.001C571.59 581.978 570.42 582.273 569.326 582.87C568.233 583.467 567.237 584.354 566.398 585.478C565.559 586.603 564.892 587.943 564.438 589.42C563.983 590.898 563.748 592.484 563.748 594.086Z" fill="#3F3D56"/>
    <path id="Vector_94" d="M614.858 477C628.187 477 638.993 469.165 638.993 459.5C638.993 449.835 628.187 442 614.858 442C601.528 442 590.723 449.835 590.723 459.5C590.723 469.165 601.528 477 614.858 477Z" fill="#2F2E41"/>
    <path id="Vector_95" d="M610.953 628C613.894 628 616.277 624.642 616.277 620.5C616.277 616.358 613.894 613 610.953 613C608.013 613 605.63 616.358 605.63 620.5C605.63 624.642 608.013 628 610.953 628Z" fill="#F2F2F2"/>
</g>
</svg>
